<svg width="16" height="16" viewBox="0 0 16 16" fill="none" xmlns="http://www.w3.org/2000/svg">
<path d="M10.6665 10.0002H5.99984V8.66687H10.6665V10.0002ZM12.6665 7.33354H5.99984V6.0002H12.6665V7.33354ZM12.6665 4.66687H5.99984V3.33354H12.6665V4.66687ZM1.99984 3.33354V14.0002H12.6665V15.3335H1.99984C1.64622 15.3335 1.30708 15.1931 1.05703 14.943C0.80698 14.693 0.666504 14.3538 0.666504 14.0002V3.33354H1.99984ZM13.9998 0.66687C14.3535 0.66687 14.6926 0.807346 14.9426 1.05739C15.1927 1.30744 15.3332 1.64658 15.3332 2.0002V11.3335C15.3332 12.0735 14.7398 12.6669 13.9998 12.6669H4.6665C4.31288 12.6669 3.97374 12.5264 3.72369 12.2763C3.47365 12.0263 3.33317 11.6872 3.33317 11.3335V2.0002C3.33317 1.2602 3.9265 0.66687 4.6665 0.66687H13.9998ZM4.6665 2.0002V11.3335H13.9998V2.0002H4.6665Z" fill="white"/>
</svg>
