<svg width="20" height="20" viewBox="0 0 20 20" fill="none" xmlns="http://www.w3.org/2000/svg">
<path d="M17.3084 16.2753C17.3084 16.5753 17.2417 16.8837 17.1001 17.1837C16.9584 17.4837 16.7751 17.767 16.5334 18.0337C16.1251 18.4837 15.6751 18.8087 15.1667 19.017C14.6667 19.2253 14.1251 19.3337 13.5417 19.3337C12.6917 19.3337 11.7834 19.1337 10.8251 18.7253C9.86675 18.317 8.90842 17.767 7.95842 17.0753C7.00008 16.3753 6.09175 15.6003 5.22508 14.742C4.36675 13.8753 3.59175 12.967 2.90008 12.017C2.21675 11.067 1.66675 10.117 1.26675 9.17533C0.866748 8.22533 0.666748 7.31699 0.666748 6.45033C0.666748 5.88366 0.766748 5.34199 0.966748 4.84199C1.16675 4.33366 1.48341 3.86699 1.92508 3.45033C2.45841 2.92533 3.04175 2.66699 3.65841 2.66699C3.89175 2.66699 4.12508 2.71699 4.33341 2.81699C4.55008 2.91699 4.74175 3.06699 4.89175 3.28366L6.82508 6.00866C6.97508 6.21699 7.08341 6.40866 7.15841 6.59199C7.23341 6.76699 7.27508 6.94199 7.27508 7.10033C7.27508 7.30033 7.21675 7.50033 7.10008 7.69199C6.99175 7.88366 6.83341 8.08366 6.63341 8.28366L6.00008 8.94199C5.90841 9.03366 5.86675 9.14199 5.86675 9.27533C5.86675 9.34199 5.87508 9.40033 5.89175 9.46699C5.91675 9.53366 5.94175 9.58366 5.95842 9.63366C6.10842 9.90866 6.36675 10.267 6.73341 10.7003C7.10841 11.1337 7.50841 11.5753 7.94175 12.017C8.39175 12.4587 8.82508 12.867 9.26675 13.242C9.70008 13.6087 10.0584 13.8587 10.3417 14.0087C10.3834 14.0253 10.4334 14.0503 10.4917 14.0753C10.5584 14.1003 10.6251 14.1087 10.7001 14.1087C10.8417 14.1087 10.9501 14.0587 11.0417 13.967L11.6751 13.342C11.8834 13.1337 12.0834 12.9753 12.2751 12.8753C12.4667 12.7587 12.6584 12.7003 12.8667 12.7003C13.0251 12.7003 13.1917 12.7337 13.3751 12.8087C13.5584 12.8837 13.7501 12.992 13.9584 13.1337L16.7167 15.092C16.9334 15.242 17.0834 15.417 17.1751 15.6253C17.2584 15.8337 17.3084 16.042 17.3084 16.2753Z" stroke="#E0E0E0" stroke-width="1.2" stroke-miterlimit="10"/>
<path d="M14.4167 8.50065C14.4167 8.00065 14.025 7.23398 13.4417 6.60898C12.9083 6.03398 12.2 5.58398 11.5 5.58398" stroke="#E0E0E0" stroke-width="1.2" stroke-linecap="round" stroke-linejoin="round"/>
<path d="M17.3333 8.50033C17.3333 5.27533 14.725 2.66699 11.5 2.66699" stroke="#E0E0E0" stroke-width="1.2" stroke-linecap="round" stroke-linejoin="round"/>
</svg>
