<svg width="16" height="16" viewBox="0 0 16 16" fill="none" xmlns="http://www.w3.org/2000/svg">
<path fill-rule="evenodd" clip-rule="evenodd" d="M10.5867 13.9467C10.6067 14.0534 10.5467 14.1667 10.4467 14.2067C9.69338 14.5067 8.86674 14.6667 8.01341 14.6667C6.54007 14.6667 5.18006 14.1934 4.08006 13.38C3.98673 13.3134 3.96008 13.18 4.02008 13.08C4.38675 12.4267 5.82005 10.3267 8.98671 9.15335C9.10671 9.10669 9.24005 9.16667 9.28005 9.28667C10.0734 11.4133 10.4467 13.2134 10.5867 13.9467Z" fill="#3A3A3A"/>
<path fill-rule="evenodd" clip-rule="evenodd" d="M14.5468 9.25999C14.2401 10.9 13.3201 12.3267 12.0334 13.3C11.8934 13.4067 11.6934 13.3266 11.6601 13.16C11.5201 12.44 11.1801 10.8866 10.5267 9.03998C10.4801 8.89998 10.5734 8.74665 10.7201 8.72665C12.3801 8.52665 13.8334 8.84664 14.3801 8.99331C14.4934 9.03331 14.5668 9.14666 14.5468 9.25999Z" fill="#3A3A3A"/>
<path fill-rule="evenodd" clip-rule="evenodd" d="M14.3933 7.87999C13.7133 7.75999 11.98 7.50664 10.2066 7.69998C10.1 7.71331 10.0066 7.65331 9.95998 7.55331C9.93331 7.49331 9.91332 7.43332 9.88666 7.37332C9.77999 7.12665 9.66666 6.87332 9.55332 6.62665C9.49332 6.50665 9.55332 6.35998 9.67332 6.30664C11.54 5.49998 12.58 4.45998 12.9866 3.99331C13.0866 3.87998 13.26 3.88666 13.3533 4.00666C14.12 5.02666 14.5933 6.27331 14.6666 7.61998C14.6733 7.78665 14.54 7.90666 14.3933 7.87999Z" fill="#3A3A3A"/>
<path fill-rule="evenodd" clip-rule="evenodd" d="M12.2933 3.19333C11.9466 3.61333 10.9733 4.61332 9.12664 5.34665C9.01997 5.39332 8.8933 5.34665 8.8333 5.23998C7.97997 3.69331 7.07329 2.39332 6.65329 1.80665C6.55329 1.66665 6.63331 1.46666 6.79998 1.43999C7.18665 1.37333 7.59331 1.34 8.00664 1.34C9.61998 1.34 11.1066 1.91332 12.26 2.87332C12.36 2.94665 12.3733 3.09333 12.2933 3.19333Z" fill="#3A3A3A"/>
<path fill-rule="evenodd" clip-rule="evenodd" d="M7.34668 5.89326C4.82001 6.5266 2.58665 6.61327 1.77332 6.6266C1.61998 6.6266 1.50667 6.47993 1.54667 6.33327C2.02667 4.4666 3.30666 2.9066 4.99333 2.0466C5.09333 1.99327 5.22 2.02659 5.28666 2.11993C5.63333 2.59993 6.57333 3.95327 7.49333 5.5466C7.56666 5.67994 7.50002 5.85326 7.34668 5.89326Z" fill="#3A3A3A"/>
<path fill-rule="evenodd" clip-rule="evenodd" d="M8.6134 7.73324C8.6734 7.8599 8.60009 8.01323 8.46675 8.0599C5.51342 9.01323 3.74675 11.3799 3.21342 12.1932C3.12675 12.3266 2.94009 12.3332 2.84009 12.2132C1.90675 11.0666 1.34009 9.75323 1.34009 8.15989V8.0399C1.34009 7.90656 1.44674 7.79989 1.58008 7.80656C2.42008 7.83989 5.16009 7.72656 8.00675 6.90656C8.11342 6.87322 8.2334 6.92657 8.28007 7.02657C8.3934 7.2599 8.50674 7.49324 8.6134 7.73324Z" fill="#3A3A3A"/>
</svg>
