<svg width="24" height="25" viewBox="0 0 24 25" fill="none" xmlns="http://www.w3.org/2000/svg">
<path d="M12 5.00006C7 5.00006 2.73 8.11006 1 12.5001C2.73 16.8901 7 20.0001 12 20.0001C17 20.0001 21.27 16.8901 23 12.5001C21.27 8.11006 17 5.00006 12 5.00006ZM12 17.5001C9.24 17.5001 7 15.2601 7 12.5001C7 9.74006 9.24 7.50006 12 7.50006C14.76 7.50006 17 9.74006 17 12.5001C17 15.2601 14.76 17.5001 12 17.5001ZM12 9.50006C10.34 9.50006 9 10.8401 9 12.5001C9 14.1601 10.34 15.5001 12 15.5001C13.66 15.5001 15 14.1601 15 12.5001C15 10.8401 13.66 9.50006 12 9.50006Z" fill="black"/>
</svg>
