<svg width="20" height="21" viewBox="0 0 20 21" fill="none" xmlns="http://www.w3.org/2000/svg">
<path d="M9.99984 18.8334C14.6022 18.8334 18.3332 15.1024 18.3332 10.5001C18.3332 5.89768 14.6022 2.16672 9.99984 2.16672C5.39746 2.16672 1.6665 5.89768 1.6665 10.5001C1.6665 15.1024 5.39746 18.8334 9.99984 18.8334Z" stroke="#9A9EA6" stroke-width="1.2" stroke-linecap="round" stroke-linejoin="round"/>
<path d="M6.66667 3.00006H7.5C5.875 7.86673 5.875 13.1334 7.5 18.0001H6.66667" stroke="#9A9EA6" stroke-width="1.2" stroke-linecap="round" stroke-linejoin="round"/>
<path d="M12.5 3.00006C14.125 7.86673 14.125 13.1334 12.5 18.0001" stroke="#9A9EA6" stroke-width="1.2" stroke-linecap="round" stroke-linejoin="round"/>
<path d="M2.5 13.8334V13.0001C7.36667 14.6251 12.6333 14.6251 17.5 13.0001V13.8334" stroke="#9A9EA6" stroke-width="1.2" stroke-linecap="round" stroke-linejoin="round"/>
<path d="M2.5 8.00003C7.36667 6.37503 12.6333 6.37503 17.5 8.00003" stroke="#9A9EA6" stroke-width="1.2" stroke-linecap="round" stroke-linejoin="round"/>
</svg>
