<svg width="16" height="16" viewBox="0 0 16 16" fill="none" xmlns="http://www.w3.org/2000/svg">
<path d="M11.3335 2.33344H4.66683C2.66683 2.33344 1.3335 3.33344 1.3335 5.66677V10.3334C1.3335 12.6668 2.66683 13.6668 4.66683 13.6668H11.3335C13.3335 13.6668 14.6668 12.6668 14.6668 10.3334V5.66677C14.6668 3.33344 13.3335 2.33344 11.3335 2.33344ZM11.6468 6.39344L9.56016 8.0601C9.12016 8.41344 8.56016 8.58677 8.00016 8.58677C7.44016 8.58677 6.8735 8.41344 6.44016 8.0601L4.3535 6.39344C4.14016 6.2201 4.10683 5.9001 4.2735 5.68677C4.44683 5.47343 4.76016 5.43343 4.9735 5.60677L7.06016 7.27344C7.56683 7.6801 8.42683 7.6801 8.9335 7.27344L11.0202 5.60677C11.2335 5.43343 11.5535 5.46677 11.7202 5.68677C11.8935 5.9001 11.8602 6.2201 11.6468 6.39344Z" fill="#3A3A3A"/>
</svg>
