<svg width="16" height="16" viewBox="0 0 16 16" fill="none" xmlns="http://www.w3.org/2000/svg">
<path d="M14.6532 7.60663C14.4265 3.73997 10.9132 0.759975 6.86653 1.42664C4.07986 1.88664 1.84654 4.14663 1.4132 6.93329C1.15987 8.54663 1.49322 10.0733 2.21988 11.3333L1.62654 13.54C1.49321 14.04 1.95319 14.4933 2.44653 14.3533L4.61987 13.7533C5.60653 14.3333 6.75987 14.6666 7.9932 14.6666C11.7532 14.6666 14.8732 11.3533 14.6532 7.60663ZM11.2532 10.48C11.1932 10.6 11.1199 10.7133 11.0265 10.82C10.8599 11 10.6799 11.1333 10.4799 11.2133C10.2799 11.3 10.0599 11.34 9.82653 11.34C9.48653 11.34 9.11986 11.26 8.73986 11.0933C8.3532 10.9266 7.97322 10.7066 7.59321 10.4333C7.20655 10.1533 6.84654 9.83996 6.49987 9.49996C6.15321 9.1533 5.84652 8.78662 5.56652 8.40662C5.29319 8.02662 5.0732 7.64663 4.9132 7.26663C4.7532 6.88663 4.67321 6.51997 4.67321 6.1733C4.67321 5.94664 4.71321 5.72664 4.79321 5.52664C4.87321 5.31997 4.99989 5.13331 5.17989 4.96664C5.39322 4.75331 5.62654 4.65331 5.8732 4.65331C5.96654 4.65331 6.05985 4.6733 6.14652 4.7133C6.23319 4.7533 6.3132 4.8133 6.3732 4.89997L7.14652 5.99329C7.20652 6.07996 7.25319 6.1533 7.27986 6.22663C7.31319 6.29996 7.32653 6.36663 7.32653 6.43329C7.32653 6.51329 7.29988 6.5933 7.25321 6.6733C7.20654 6.7533 7.14652 6.83329 7.06652 6.91329L6.81319 7.17996C6.77319 7.21996 6.75988 7.25997 6.75988 7.3133C6.75988 7.33997 6.76652 7.36663 6.77319 7.3933C6.78652 7.41996 6.79321 7.43997 6.79988 7.45997C6.85988 7.5733 6.96653 7.71329 7.11319 7.88662C7.26653 8.05996 7.42655 8.23996 7.59989 8.41329C7.77989 8.59329 7.95321 8.75329 8.13321 8.90662C8.30655 9.05329 8.45319 9.1533 8.56652 9.2133C8.58652 9.21997 8.60654 9.23329 8.62654 9.23995C8.65321 9.25329 8.67988 9.2533 8.71321 9.2533C8.77321 9.2533 8.81322 9.2333 8.85322 9.1933L9.10652 8.93997C9.19319 8.8533 9.27322 8.7933 9.34655 8.7533C9.42655 8.70663 9.49988 8.67996 9.58654 8.67996C9.65321 8.67996 9.71987 8.6933 9.79321 8.72663C9.86654 8.75996 9.94652 8.79997 10.0265 8.85997L11.1332 9.64663C11.2199 9.70663 11.2799 9.77997 11.3199 9.85997C11.3532 9.94664 11.3732 10.0266 11.3732 10.12C11.3332 10.2333 11.3065 10.36 11.2532 10.48Z" fill="#3A3A3A"/>
</svg>
