<svg width="126" height="58" viewBox="0 0 126 58" fill="none" xmlns="http://www.w3.org/2000/svg">
<path fill-rule="evenodd" clip-rule="evenodd" d="M25.0063 0.164978H25.0242H25.078C36.3075 1.51538 44.7745 11.1122 44.7745 22.4736C44.7745 33.6729 36.6125 42.9636 25.9391 44.6741V45.8085H18.8354V44.6741C8.16202 42.9636 0 33.6729 0 22.4736C0 13.723 5.05866 5.78264 12.9516 2.09155L13.8306 1.67743L16.8442 8.21336L15.9653 8.62748C10.6196 11.1302 7.1754 16.5138 7.1754 22.4736C7.1754 29.5857 12.0547 35.7075 18.8354 37.328V0.27301L19.7144 0.164978C20.5934 0.0569457 21.4903 0.00292969 22.3872 0.00292969C23.2662 0.00292969 24.1452 0.0569457 25.0063 0.164978ZM25.9391 37.328C32.7198 35.7075 37.5991 29.5857 37.5991 22.4736C37.5991 15.3615 32.7198 9.23966 25.9391 7.61918V37.328Z" fill="white"/>
<path d="M60.668 12.5884H71.5208V6.84473H54.3895V46.9606H71.5208V41.2349H60.668V29.4954H69.9063L65.637 25.9664H65.6549L65.637 25.9304L68.6865 25.9124L67.2335 23.7517H60.668V12.5884ZM28.9707 49.6254H19.0327L19.2839 51.1558H28.7016L28.2531 53.8026H19.7323L19.9835 55.3511H28.002L27.5535 57.9979H20.4319H17.221L16.5214 53.8026L16.0729 51.1558L15.3733 46.9606H18.5843H29.4012L28.9707 49.6254ZM72.3639 29.4954H75.3955V46.9606H92.5268V41.2349H81.6919V29.4954H90.3024V23.7517H81.6919V12.5884H92.5268V6.84473H75.3955V23.7517H69.6552L74.0322 27.3708L70.9467 27.3888L72.3639 29.4954ZM96.4194 46.9606H106.357C112.636 46.9606 115.721 43.4676 115.721 37.0577V16.7657C115.721 10.3378 112.636 6.84473 106.357 6.84473H96.4194V46.9606ZM106.232 12.5884C108.241 12.5884 109.443 13.6147 109.443 16.4776V37.3458C109.443 40.2086 108.241 41.2349 106.232 41.2349H102.698V12.5884H106.232ZM119.722 46.9606H126V6.84473H119.722V46.9606Z" fill="#00B8C9"/>
</svg>
